<svg xmlns="http://www.w3.org/2000/svg" viewBox="0 0 500 500"><g id="freepik--background-complete--inject-10"><polygon points="76.89 404.67 61.8 397.32 56.8 375.26 52.59 376.24 56.24 397.08 41.78 388.78 38.62 391.86 57.75 402.2 76.89 409.81 76.89 404.67" style="fill:#ebebeb"></polygon><polygon points="82.99 465.96 71.94 465.96 74.8 372.49 85.85 372.49 82.99 465.96" style="fill:#ebebeb"></polygon><path d="M77.31,140c0,1.29-29.67,80.69-29.67,80.69l14.83-12.8L41.1,263.38l14.08-16.65L38.59,316.32l8-7.26-14.08,49.1,12.07-12.81L32.55,382.07l95.55-6-22.63-69.16,13.67,12.8-17.69-50.38,9,4.27L89.88,208.73l9.56,5.55Z" style="fill:#e0e0e0"></path><path d="M80.51,281.73a5.89,5.89,0,0,1-.47,1.18l-1.49,3.22c-1.36,2.82-3.21,6.66-5.35,11.12l-.24.49-.29-.47a52.49,52.49,0,0,1-3.9-7.36c-.43-1-.82-2-1.16-2.91l.59,0c-2.64,5.7-5.22,10.67-7.16,14.2-1,1.76-1.78,3.17-2.36,4.13-.26.44-.49.8-.67,1.1s-.25.38-.27.37a9.6,9.6,0,0,1,.74-1.55l2.18-4.19c1.84-3.57,4.35-8.55,7-14.25l.32-.71.26.72c.34.94.73,1.91,1.15,2.89a54.33,54.33,0,0,0,3.84,7.3l-.54,0L78.21,286l1.65-3.16A6.62,6.62,0,0,1,80.51,281.73Z" style="fill:#ebebeb"></path><path d="M90.69,252.09a4.25,4.25,0,0,1-.54-.86l-1.37-2.42c-1.18-2.06-2.92-4.94-5.17-8.16l.55-.07c-.48,1.57-1,3.25-1.53,5-.34,1.09-.67,2.15-1,3.18l-.22.71-.36-.67c-2-3.85-3.8-7.24-5-9.68l-1.43-2.87a5.19,5.19,0,0,1-.45-1.07,5.15,5.15,0,0,1,.65,1l1.6,2.8c1.33,2.4,3.17,5.77,5.23,9.61l-.58,0c.32-1,.64-2.09,1-3.18.54-1.74,1.06-3.42,1.55-5l.18-.6.37.53a79.16,79.16,0,0,1,5,8.29c.55,1,1,1.9,1.22,2.49A3.8,3.8,0,0,1,90.69,252.09Z" style="fill:#ebebeb"></path><path d="M77.16,191.26a20.32,20.32,0,0,1-1.69,2.82c-1.11,1.73-2.7,4.13-4.54,6.85l-.42.62-.15-.7c-.16-.79-.34-1.61-.51-2.44-.3-1.45-.59-2.84-.85-4.13l.54.09c-1.7,2.3-3.19,4.26-4.26,5.64a16.29,16.29,0,0,1-1.79,2.15A14.27,14.27,0,0,1,65,199.84c1-1.42,2.4-3.42,4.07-5.73l.4-.56.14.65c.28,1.28.57,2.67.88,4.11.17.84.34,1.66.51,2.45l-.57-.09c1.86-2.71,3.52-5.08,4.72-6.76A19.31,19.31,0,0,1,77.16,191.26Z" style="fill:#ebebeb"></path><polygon points="425.42 413.17 410.34 405.82 405.33 383.76 401.12 384.74 404.78 405.58 390.32 397.28 387.15 400.36 406.29 410.7 425.42 418.31 425.42 413.17" style="fill:#ebebeb"></polygon><polygon points="431.52 474.46 420.47 474.46 423.33 380.99 434.38 380.99 431.52 474.46" style="fill:#ebebeb"></polygon><path d="M425.84,148.49c0,1.29-29.67,80.7-29.67,80.7L411,216.38l-21.38,55.5,14.08-16.65-16.59,69.59,8-7.26-14.08,49.1,12.07-12.81-12.07,36.72,95.55-6L454,315.43l13.67,12.8L450,277.86l9,4.26-20.62-64.89,9.56,5.55Z" style="fill:#e0e0e0"></path><path d="M429,290.23a5.19,5.19,0,0,1-.47,1.18l-1.49,3.22c-1.36,2.82-3.21,6.66-5.35,11.12l-.24.49-.29-.47a52.49,52.49,0,0,1-3.9-7.36c-.43-1-.82-2-1.15-2.91l.58,0c-2.64,5.7-5.22,10.67-7.16,14.2-1,1.77-1.78,3.17-2.36,4.13-.26.44-.48.8-.67,1.1s-.25.38-.27.37a9.6,9.6,0,0,1,.74-1.55l2.18-4.19c1.84-3.57,4.35-8.55,7-14.25l.33-.71.26.73c.34.93.72,1.9,1.14,2.88a53.73,53.73,0,0,0,3.84,7.3l-.53,0,5.55-11.05,1.65-3.16A7.61,7.61,0,0,1,429,290.23Z" style="fill:#ebebeb"></path><path d="M439.22,260.59a4.67,4.67,0,0,1-.53-.85l-1.38-2.43c-1.18-2.06-2.92-4.94-5.17-8.16l.55-.07c-.48,1.57-1,3.25-1.53,5-.33,1.09-.66,2.16-1,3.18L430,258l-.36-.67c-2-3.85-3.8-7.24-5-9.67-.57-1.16-1.05-2.12-1.43-2.88a5.19,5.19,0,0,1-.45-1.07,4.64,4.64,0,0,1,.65,1c.43.74,1,1.68,1.6,2.8,1.34,2.4,3.17,5.77,5.23,9.61l-.57,0c.31-1,.64-2.09,1-3.18.54-1.74,1.07-3.42,1.55-5l.18-.6.37.53a79.16,79.16,0,0,1,5,8.29c.55,1.05,1,1.9,1.22,2.49A3.31,3.31,0,0,1,439.22,260.59Z" style="fill:#ebebeb"></path><path d="M425.69,199.76a19.11,19.11,0,0,1-1.69,2.82c-1.11,1.73-2.7,4.13-4.54,6.85l-.41.63-.15-.71c-.17-.79-.34-1.61-.52-2.44-.3-1.45-.58-2.84-.85-4.13l.54.09c-1.7,2.3-3.19,4.26-4.26,5.64a16.29,16.29,0,0,1-1.79,2.15,14.81,14.81,0,0,1,1.48-2.32c1-1.42,2.4-3.42,4.07-5.73l.41-.56.13.65c.28,1.28.57,2.67.88,4.11.18.84.35,1.66.51,2.45l-.57-.09c1.86-2.71,3.52-5.08,4.73-6.76A18.87,18.87,0,0,1,425.69,199.76Z" style="fill:#ebebeb"></path><path d="M367.64,79.6c-4.57-7.46-13.07-12.2-21.75-13.31C327.93,64,318,71.46,318,71.46s-12.92-12.61-35.44-10.59c-19.6,1.76-36.63,18.38-40.3,37.71a38.52,38.52,0,0,0-47.75,34.14c-10.23,1.09-27.73,11.36-18.4,33.57h22.66c3.1-.57,8.19-11.53,6.93-20.59,15.89,7.72,36.69,3.54,48.37-9.72,16.27,15.23,45.09,13.94,59.93-2.68,4.37-4.89,7.78-14.44,7.78-14.44s7.39,6,20.45,4.84c16.51-1.5,23.28-10,27.53-17.38S372.09,86.85,367.64,79.6Z" style="fill:#ebebeb"></path><path d="M458.29,65a17.11,17.11,0,0,0-19.13-5.26c5.73-5,1.52-16.8-4.82-21s-14.73-3.56-22-1.39c-4.53,1.36-7.24,4.93-10.24,8.58s-4.49,11.12-1.81,15c-7.95-.78-15.69,6.59-15.31,14.56s8.78,14.58,16.62,13c-.69,10.06,7.88,19.83,17.94,20.47s19.79-8,20.38-18a16.63,16.63,0,0,0,18.36-26Z" style="fill:#f5f5f5"></path><path d="M158.71,130.82a16.19,16.19,0,0,0-18.08-5c5.42-4.7,1.44-15.87-4.55-19.81s-13.91-3.37-20.78-1.31c-4.28,1.28-6.84,4.66-9.67,8.1s-4.25,10.51-1.71,14.19c-7.51-.74-14.82,6.22-14.47,13.76s8.3,13.77,15.71,12.33c-.65,9.5,7.44,18.74,16.94,19.34s18.7-7.53,19.26-17a15.71,15.71,0,0,0,17.35-24.58Z" style="fill:#f5f5f5"></path><path d="M212.76,55.33c-4-8.87-14.2-14.88-23.38-14.75-20.66-1.64-27.6,12.7-27.24,21.35s8.39,16.13,16.67,15.54c-1.86,1.09-2.26,3.9-1.33,5.9a9.48,9.48,0,0,0,4.8,4.24,23,23,0,0,0,26.05-5A25.58,25.58,0,0,0,212.76,55.33Z" style="fill:#f5f5f5"></path><circle cx="330.26" cy="39.68" r="8.44" transform="translate(238.05 359.28) rotate(-80.76)" style="fill:#f5f5f5"></circle></g><g id="freepik--Floor--inject-10"><path d="M484.37,474.46c0,.14-104.94.26-234.36.26s-234.38-.12-234.38-.26,104.92-.26,234.38-.26S484.37,474.32,484.37,474.46Z" style="fill:#263238"></path></g><g id="freepik--House--inject-10"><rect x="168.76" y="168.88" width="39.47" height="45.53" style="fill:#FF725E"></rect><rect x="164" y="164.92" width="48.08" height="14.75" style="fill:#FF725E"></rect><path d="M212.37,180c0,.15-10.89.26-24.33.26s-24.32-.11-24.32-.26,10.89-.26,24.32-.26S212.37,179.82,212.37,180Z" style="fill:#263238"></path><rect x="112" y="212.7" width="271.91" height="261.76" style="fill:#FF725E"></rect><path d="M225.78,212.7c0,.14-25.24.26-56.36.26s-56.37-.12-56.37-.26,25.23-.26,56.37-.26S225.78,212.55,225.78,212.7Z" style="fill:#263238"></path><rect x="264.8" y="260.61" width="91.78" height="109.58" style="fill:#fff"></rect><path d="M277.91,370.19l-.31-2-6.34-40.88S291.55,291,290,260.61H264.8V370.19" style="fill:#455a64"></path><path d="M345.19,370.19h-3V348.71a6.42,6.42,0,0,0-12.83,0v6h-3v-6a9.42,9.42,0,0,1,18.83,0Z" style="fill:#e0e0e0"></path><rect x="308.12" y="257.42" width="5.15" height="112.77" style="fill:#FF725E"></rect><rect x="310.7" y="267.33" width="5.15" height="98.1" transform="translate(-3.11 629.65) rotate(-90)" style="fill:#FF725E"></rect><rect x="325.93" y="260.61" width="30.66" height="47.32" style="fill:#e0e0e0"></rect><path d="M356.59,370.19s0-.18,0-.53,0-.86,0-1.53c0-1.35,0-3.34,0-5.93,0-5.19,0-12.78-.07-22.4,0-19.22-.06-46.59-.11-79.19l.23.23-91.78,0h0l.26-.26c0,40.49,0,78.17,0,109.58l-.22-.22,66.57.11,18.61.06,4.91,0c1.11,0,1.7,0,1.7,0s-.55,0-1.65,0l-4.87,0-18.56.06-66.71.11h-.21v-.22c0-31.41,0-69.09,0-109.58v-.26h.27l91.78,0h.23v.23c-.05,32.66-.09,60.08-.12,79.34,0,9.6,0,17.17-.06,22.35,0,2.56,0,4.54,0,5.89,0,.65,0,1.15,0,1.5S356.59,370.19,356.59,370.19Z" style="fill:#263238"></path><rect x="171.12" y="230.41" width="34.77" height="15.24" style="fill:#e0e0e0"></rect><path d="M183.22,234.1V242H181v-6.16h-1.46V234.1Z" style="fill:#fff"></path><path d="M190.49,240.21V242h-6.14v-1.4l3-2.76a2.83,2.83,0,0,0,.58-.69,1.34,1.34,0,0,0,.14-.58.7.7,0,0,0-.26-.59,1.1,1.1,0,0,0-.75-.22,1.67,1.67,0,0,0-.8.2,1.59,1.59,0,0,0-.61.57l-1.65-.93a3.25,3.25,0,0,1,1.29-1.2,4.6,4.6,0,0,1,3.57-.15,2.55,2.55,0,0,1,1.08.84,2.21,2.21,0,0,1,.38,1.27,2.78,2.78,0,0,1-.27,1.21,4.69,4.69,0,0,1-1.07,1.29l-1.48,1.37Z" style="fill:#fff"></path><path d="M196.68,238.05a2.17,2.17,0,0,1,.53,1.46,2.4,2.4,0,0,1-.38,1.3,2.77,2.77,0,0,1-1.15,1,4.49,4.49,0,0,1-1.91.36,6.65,6.65,0,0,1-1.65-.2,5,5,0,0,1-1.41-.57l.81-1.68a3.66,3.66,0,0,0,1,.48,3.86,3.86,0,0,0,1.15.17,1.73,1.73,0,0,0,.91-.21.69.69,0,0,0,.33-.61c0-.51-.4-.76-1.2-.76h-.93v-1.41l1.4-1.52h-3.1V234.1h5.69v1.39l-1.63,1.76A2.6,2.6,0,0,1,196.68,238.05Z" style="fill:#fff"></path><rect x="132.76" y="253.19" width="107.27" height="221.04" style="fill:#ae7461"></rect><path d="M232,474.75s0-.36,0-1.05,0-1.72,0-3.06c0-2.7,0-6.68,0-11.84,0-10.33,0-25.37-.07-44.28,0-37.79-.07-91-.12-152.86l.25.25H141.59l.26-.26c0,83.11-.06,158.4-.08,213.09l-.18-.19,66.07.1,18,0,4.7,0c1.06,0,1.61,0,1.61,0h-1.58l-4.66,0-17.95.05-66.19.1h-.19v-.18c0-54.69,0-130-.07-213.09v-.26h90.89v.25c-.05,61.9-.09,115.2-.12,153,0,18.88,0,33.91-.07,44.22,0,5.14,0,9.1,0,11.78,0,1.33,0,2.35,0,3S232,474.75,232,474.75Z" style="fill:#263238"></path><path d="M141.16,261.66a34.45,34.45,0,0,1-4.39-4.05,34.37,34.37,0,0,1-4-4.42,34.67,34.67,0,0,1,4.38,4.05A35,35,0,0,1,141.16,261.66Z" style="fill:#263238"></path><path d="M232,261.62a34.67,34.67,0,0,1,4.05-4.38,33.8,33.8,0,0,1,4.41-4,33.77,33.77,0,0,1-4.05,4.38A33.94,33.94,0,0,1,232,261.62Z" style="fill:#263238"></path><rect x="215.98" y="359.7" width="7.34" height="20.97" style="fill:#e0e0e0"></rect><path d="M219.67,366.87h-12.9a1.94,1.94,0,0,1-1.94-1.94h0a1.94,1.94,0,0,1,1.94-1.93h12.9a1.93,1.93,0,0,1,1.93,1.93h0A1.93,1.93,0,0,1,219.67,366.87Z" style="fill:#e0e0e0"></path><path d="M219.67,366.87a2.43,2.43,0,0,0,1.28-.62,1.89,1.89,0,0,0,.5-1.5,1.79,1.79,0,0,0-1.32-1.5,5.89,5.89,0,0,0-1.29-.05l-1.46,0-3.23,0-7.38,0a1.66,1.66,0,0,0-1.41.78,1.64,1.64,0,0,0-.13,1.56,1.7,1.7,0,0,0,1.16,1,3.67,3.67,0,0,0,.83,0h.86l6,.05,4.07.09a7.72,7.72,0,0,1,1.49.1,7.72,7.72,0,0,1-1.49.1l-4.07.08-6,.06h-.86a3.88,3.88,0,0,1-.94-.05,2.19,2.19,0,0,1,.49-4.32l7.38,0,3.23,0,1.46,0a6.58,6.58,0,0,1,1.39.09,2.11,2.11,0,0,1,1.51,1.83,2,2,0,0,1-.65,1.67A1.63,1.63,0,0,1,219.67,366.87Z" style="fill:#263238"></path><path d="M456.69,474.23c-.14,0-17.6-57.64-39-128.82s-38.64-128.94-38.5-129,17.6,57.63,39,128.83S456.83,474.19,456.69,474.23Z" style="fill:#263238"></path><path d="M423.92,364.32s.1-.25.33-.71l1-2.05c.91-1.81,2.22-4.44,3.9-7.8,3.41-6.75,8.3-16.45,14.26-28.28l.19.29-30.56,0h-.37l.15-.34c5.1-11.82,10.76-24.78,16.49-38.41.31-.74.62-1.48.89-2.21l.24.34h-30l.18-.36c8.32-16.58,15.77-31.42,21.78-43.41l.17.27-25.83-.08-7,0-1.82,0-.63,0,.63,0,1.82,0,7-.05,25.83-.08h.3l-.13.27c-6,12-13.39,26.86-21.67,43.46l-.22-.36h29.93l-.13.34c-.28.77-.59,1.51-.9,2.25-5.73,13.64-11.4,26.59-16.53,38.41l-.22-.34,30.56,0h.33l-.15.29c-6,11.8-11,21.47-14.42,28.21-1.73,3.34-3.07,5.95-4,7.75l-1.06,2C424.06,364.09,423.92,364.32,423.92,364.32Z" style="fill:#263238"></path><path d="M461.6,474.46s0-.2.16-.59.28-1,.5-1.72c.46-1.53,1.13-3.75,2-6.59,1.75-5.72,4.26-13.93,7.35-24l.18.25-24.8,0h-.37l.15-.33,15.81-36.66.23.37H435.11l.15-.35,9.54-22c2.92-6.81,5.68-13.05,7.92-18.63l.18.24-21.63-.08-5.88-.05-1.53,0-.52,0,.52,0,1.53,0,5.88-.05,21.63-.08h.27l-.1.25c-2.23,5.64-4.95,11.86-7.86,18.69l-9.49,22-.23-.35h27.7l-.16.36L447.18,441.7l-.21-.33,24.8,0H472l-.08.25-7.51,24c-.9,2.82-1.6,5-2.08,6.55l-.56,1.7C461.68,474.27,461.6,474.46,461.6,474.46Z" style="fill:#263238"></path></g><g id="freepik--plant-2--inject-10"><path d="M415.1,433.16a7.68,7.68,0,0,1,4,4.53,13.76,13.76,0,0,1,.53,6.15c-.45,4-2.72,8-5.16,11.2-3.35-2.93-4.13-8-4.36-10.66-.36-4.14,1.5-11.84,5-11.22" style="fill:#455a64"></path><path d="M418.39,461.62a6.59,6.59,0,0,1,2.13-6.27,8.72,8.72,0,0,1,6.45-2,3.68,3.68,0,0,1,2.84,1.27,2.81,2.81,0,0,1,0,2.86,5.69,5.69,0,0,1-2.11,2.08c-2.91,1.83-6.06,3.06-9.35,2.07" style="fill:#455a64"></path><path d="M414.08,473.85a5.1,5.1,0,0,1,.12-.82c.11-.58.24-1.32.41-2.21a23,23,0,0,1,2.28-7.08,14.09,14.09,0,0,1,5.08-5.39,9.31,9.31,0,0,1,2.07-.92,4,4,0,0,1,.6-.15.55.55,0,0,1,.21,0,13.06,13.06,0,0,0-7.7,6.63,24.9,24.9,0,0,0-2.34,7c-.21.92-.37,1.68-.5,2.19A4.71,4.71,0,0,1,414.08,473.85Z" style="fill:#263238"></path><path d="M414.21,439.15a2,2,0,0,1,0,.35c0,.27,0,.61.06,1,.05.89.1,2.19.15,3.78.1,3.2.19,7.62.16,12.49s-.14,9.3-.27,12.49c-.06,1.6-.13,2.89-.18,3.79,0,.42-.05.76-.07,1a1.45,1.45,0,0,1-.05.36,2,2,0,0,1,0-.36v-1c0-.93.06-2.21.1-3.78.08-3.2.16-7.61.18-12.49s0-9.29-.07-12.48c0-1.57-.05-2.85-.06-3.78,0-.43,0-.77,0-1A1.41,1.41,0,0,1,414.21,439.15Z" style="fill:#263238"></path><path d="M412.58,464.05a15.44,15.44,0,0,0-8.42-11.3c-1.13-.54-2.59-.89-3.51-.05s-.72,2.33-.27,3.49a13.17,13.17,0,0,0,12.12,8.19" style="fill:#455a64"></path><path d="M404.7,456.53a6.07,6.07,0,0,1,.71.31,7.37,7.37,0,0,1,.81.43c.3.19.66.38,1,.65a13.31,13.31,0,0,1,1.18.88,15.69,15.69,0,0,1,1.24,1.13A17.12,17.12,0,0,1,412,463a16.65,16.65,0,0,1,1.57,3.53,14.81,14.81,0,0,1,.39,1.64,10.37,10.37,0,0,1,.2,1.46,10.62,10.62,0,0,1,.06,1.21,6.35,6.35,0,0,1,0,.91,3.68,3.68,0,0,1-.08.77c-.07,0,0-1.11-.15-2.87-.06-.44-.11-.92-.23-1.43a14.24,14.24,0,0,0-.42-1.61,17.67,17.67,0,0,0-1.55-3.46,18,18,0,0,0-2.32-3,15.82,15.82,0,0,0-1.21-1.14c-.39-.35-.78-.63-1.14-.9C405.68,457.05,404.67,456.59,404.7,456.53Z" style="fill:#263238"></path></g><g id="freepik--plant-1--inject-10"><path d="M93.23,343c-7.25,3.75-12.8,10.21-16.8,17.33S69.87,375.26,67.32,383l-2.23,40c8.42-14.34,15.19-31.2,17-47.73l-5.61-.5c3.76-.57,6.92-3.3,8.92-6.53s3-7,4.06-10.62l-6.85,1A25.33,25.33,0,0,0,93.23,343Z" style="fill:#455a64"></path><g style="opacity:0.30000000000000004"><path d="M93.23,343c-7.25,3.75-12.8,10.21-16.8,17.33S69.87,375.26,67.32,383l-2.23,40c8.42-14.34,15.19-31.2,17-47.73l-5.61-.5c3.76-.57,6.92-3.3,8.92-6.53s3-7,4.06-10.62l-6.85,1A25.33,25.33,0,0,0,93.23,343Z"></path></g><path d="M66.6,439.86S48.31,418,48.52,397.06h7.39s-8-5.28-7.39-8.23.85-14.15.85-14.15l6.75,1.69s-5.07-2.53-5.7-6.55,1.48-22.59,1.48-22.59,8.23,8.66,10.77,17.53S71.85,384,69.9,411,66.6,439.86,66.6,439.86Z" style="fill:#455a64"></path><path d="M73.11,434.41s19.82-13.2,24.23-30.06l-6-1.61s7.61-2.49,7.75-5,2.41-11.56,2.41-11.56l-5.8-.12s4.63-.92,6-4,3.75-18.49,3.75-18.49S97,368.71,93,375.29,81.44,388.72,77.1,410.88,73.11,434.41,73.11,434.41Z" style="fill:#455a64"></path><path d="M56.9,366.32a1,1,0,0,1,.07.23c.05.18.1.4.17.67.14.63.34,1.5.59,2.6.52,2.25,1.2,5.53,2,9.59,1.57,8.12,3.42,19.4,4.87,31.94s2.22,23.95,2.55,32.21c.17,4.13.26,7.48.27,9.79,0,1.13,0,2,0,2.66v.7a.6.6,0,0,1,0,.23.72.72,0,0,1,0-.23c0-.19,0-.42,0-.69,0-.65-.06-1.54-.11-2.66-.07-2.31-.21-5.65-.43-9.78-.42-8.25-1.25-19.64-2.69-32.17s-3.25-23.81-4.72-31.94c-.73-4.06-1.36-7.35-1.81-9.61-.21-1.11-.38-2-.5-2.62,0-.27-.09-.5-.12-.68A.87.87,0,0,1,56.9,366.32Z" style="fill:#263238"></path><path d="M55,432.4s-16.74-19-21.94-30.48L37,400.25a10.2,10.2,0,0,1-8-2.61,30.35,30.35,0,0,1-5.41-6.71l5.17-.87a19.27,19.27,0,0,1-11.3-8.75c6.1,1,11.62,4.35,16.17,8.54a81.08,81.08,0,0,1,9.8,11.35,38.41,38.41,0,0,1,3.8,6.26C50,413.27,55,425.43,55,432.4Z" style="fill:#455a64"></path><path d="M97.6,374.61a4.68,4.68,0,0,1-.32.75c-.25.53-.58,1.23-1,2.12-.88,1.82-2.15,4.48-3.68,7.78-3.07,6.58-7.11,15.77-11.12,26.11s-7.18,19.87-9.34,26.81c-1.08,3.47-1.94,6.28-2.51,8.23-.28.94-.51,1.69-.68,2.24a4.21,4.21,0,0,1-.27.77,5.86,5.86,0,0,1,.17-.8c.15-.56.34-1.31.59-2.26.51-2,1.31-4.8,2.36-8.29,2.07-7,5.21-16.52,9.21-26.88s8.11-19.53,11.27-26.09c1.57-3.28,2.88-5.91,3.83-7.71.45-.87.82-1.56,1.09-2.07A3.71,3.71,0,0,1,97.6,374.61Z" style="fill:#263238"></path><path d="M56.66,439.94a5.8,5.8,0,0,1-.25-1.17c-.12-.75-.32-1.85-.6-3.19a68.26,68.26,0,0,0-3-10.27,67.49,67.49,0,0,0-4.57-9.66c-.68-1.19-1.25-2.14-1.66-2.79a5.53,5.53,0,0,1-.58-1.05,5.35,5.35,0,0,1,.75.94c.46.61,1.08,1.54,1.8,2.71a57.77,57.77,0,0,1,4.74,9.67,57.18,57.18,0,0,1,2.83,10.39c.23,1.35.38,2.46.44,3.23A5.1,5.1,0,0,1,56.66,439.94Z" style="fill:#263238"></path><rect x="40.44" y="433.76" width="51.6" height="9.33" style="fill:#FF725E"></rect><polygon points="45.36 443.09 50.94 474.46 82.12 474.46 87.33 443.09 45.36 443.09" style="fill:#FF725E"></polygon><path d="M88.88,443.09c0,.14-9.76.25-21.8.25s-21.8-.11-21.8-.25,9.76-.25,21.8-.25S88.88,443,88.88,443.09Z" style="fill:#263238"></path></g><g id="freepik--Sun--inject-10"><circle cx="80.01" cy="75.24" r="15.97" transform="translate(-7.02 142.23) rotate(-80.83)" style="fill:#FF725E"></circle><path d="M80,91.23a16,16,0,0,1-6.23-30.72,16,16,0,0,1,21,21A15.95,15.95,0,0,1,80,91.23Z" style="fill:#FF725E"></path><path d="M77.73,111a65.36,65.36,0,0,1-.17-6.59,65.36,65.36,0,0,1,.17-6.59,62,62,0,0,1,.17,6.59A62,62,0,0,1,77.73,111Z" style="fill:#FF725E"></path><path d="M77.73,111s-.08,0-.13-2c0-1.24,0-2.9,0-4.66s0-3.41,0-4.66c.05-1.94.1-1.94.13-1.94s.09,0,.14,1.94c0,1.25,0,2.9,0,4.66s0,3.42,0,4.66C77.82,111,77.76,111,77.73,111Zm0-13.17c-.07.24-.15,2.75-.15,6.56s.08,6.32.15,6.56c.08-.24.15-2.74.15-6.56S77.81,98.06,77.73,97.81Z" style="fill:#FF725E"></path><path d="M68.53,94.07c.08,0-1.42,2.8-3.36,6.15a68.27,68.27,0,0,1-3.65,6c-.08,0,1.43-2.79,3.36-6.14S68.45,94,68.53,94.07Z" style="fill:#FF725E"></path><path d="M61.53,106.21h0s-.08,0,.91-1.86c.64-1.16,1.5-2.69,2.44-4.31s1.83-3.13,2.51-4.26c1-1.59,1.11-1.73,1.15-1.73h0s.07,0-.92,1.86c-.63,1.16-1.5,2.69-2.43,4.31-1.66,2.88-3.51,6-3.66,6Zm7-12.11c-.19.19-1.59,2.45-3.62,6s-3.28,5.84-3.35,6.11c.2-.19,1.59-2.45,3.62-6S68.44,94.36,68.51,94.1Z" style="fill:#FF725E"></path><path d="M59.08,88.19a36.58,36.58,0,0,1-3.73,3.18,34.59,34.59,0,0,1-3.94,2.91,36.58,36.58,0,0,1,3.73-3.18A34.59,34.59,0,0,1,59.08,88.19Z" style="fill:#FF725E"></path><path d="M51.41,94.3h0s-.06-.06,1.05-1c.7-.6,1.65-1.38,2.68-2.19a40.62,40.62,0,0,1,3.94-2.92h0a0,0,0,0,1,0,0h0a38,38,0,0,1-3.74,3.19c-1,.81-2,1.57-2.74,2.12A5.58,5.58,0,0,1,51.41,94.3Zm7.65-6.1a43.64,43.64,0,0,0-3.91,2.92,40.94,40.94,0,0,0-3.72,3.15,45.35,45.35,0,0,0,3.91-2.92A43.14,43.14,0,0,0,59.06,88.2Zm0,0Z" style="fill:#FF725E"></path><path d="M93.67,104.47a9.33,9.33,0,0,1-.42-1.62c-.23-1-.56-2.39-1-3.91s-.82-2.88-1.12-3.87a8.36,8.36,0,0,1-.45-1.61A7.36,7.36,0,0,1,91.38,95c.37,1,.82,2.33,1.23,3.86s.7,2.93.87,4A7.9,7.9,0,0,1,93.67,104.47Z" style="fill:#FF725E"></path><path d="M93.67,104.49c-.06,0-.12-.25-.44-1.64-.21-.94-.55-2.36-1-3.91s-.85-3-1.13-3.86v0c-.4-1.31-.48-1.6-.43-1.62s0,0,.24.41.29.69.46,1.14c.25.66.74,2,1.23,3.86s.75,3.25.87,4a8.73,8.73,0,0,1,.19,1.68Zm-3-11a15,15,0,0,0,.45,1.57v0c.28.9.7,2.28,1.13,3.86s.75,3,1,3.92.34,1.49.4,1.59a9.37,9.37,0,0,0-.2-1.64,39.91,39.91,0,0,0-.87-3.94c-.49-1.82-1-3.2-1.22-3.86A12.15,12.15,0,0,0,90.72,93.48Z" style="fill:#FF725E"></path><path d="M109.87,93a57.81,57.81,0,0,1-4.72-3.9,55.93,55.93,0,0,1-4.5-4.16,56.81,56.81,0,0,1,4.72,3.91A54.85,54.85,0,0,1,109.87,93Z" style="fill:#FF725E"></path><path d="M109.87,93a58.59,58.59,0,0,1-4.73-3.91c-1.23-1.08-2.38-2.1-3.23-2.89-1.33-1.23-1.29-1.27-1.27-1.29a0,0,0,0,1,0,0h0a58.59,58.59,0,0,1,4.73,3.91c1.23,1.08,2.38,2.1,3.23,2.89,1.33,1.23,1.29,1.27,1.27,1.29h0Zm-9.2-8.06c.12.2,1.82,1.79,4.49,4.13s4.47,3.8,4.69,3.89c-.12-.2-1.82-1.79-4.49-4.12S100.89,85,100.67,84.93Z" style="fill:#FF725E"></path><path d="M116.08,77.17a13.25,13.25,0,0,1-1.93-.27c-1.18-.2-2.82-.45-4.64-.66s-3.46-.34-4.66-.41a13.31,13.31,0,0,1-1.94-.17,10.69,10.69,0,0,1,2-.07c1.2,0,2.87.1,4.69.31s3.47.5,4.65.76A10.34,10.34,0,0,1,116.08,77.17Z" style="fill:#FF725E"></path><path d="M116,77.2c-.14,0-.53-.06-1.49-.22l-.38-.07c-1.62-.27-3.18-.49-4.64-.66s-3-.3-4.66-.4l-.38,0c-1.32-.08-1.58-.1-1.58-.16h0a9.93,9.93,0,0,1,2-.08c.83,0,2.54.07,4.69.32a44.58,44.58,0,0,1,4.65.76,9.94,9.94,0,0,1,1.89.51v0h0S116.07,77.2,116,77.2Zm-13.08-1.54a14.1,14.1,0,0,0,1.53.13l.38,0c1.65.11,3.22.24,4.67.41s3,.39,4.63.66l.38.06c.77.13,1.35.23,1.5.23h0a12.75,12.75,0,0,0-1.86-.49c-.81-.18-2.49-.51-4.64-.76a46.16,46.16,0,0,0-4.69-.31A15.93,15.93,0,0,0,102.94,75.66Z" style="fill:#FF725E"></path><path d="M116.1,61.64c0,.09-3.44,1-7.73,2s-7.78,1.82-7.8,1.73,3.44-1,7.72-2.06S116.08,61.55,116.1,61.64Z" style="fill:#FF725E"></path><path d="M100.61,65.44s0,0-.06,0,0-.08,2.26-.69c1.46-.39,3.41-.88,5.48-1.38s4-1,5.5-1.29c2.3-.51,2.32-.46,2.32-.43h0s0,.09-2.25.69c-1.46.39-3.41.88-5.48,1.39s-4,1-5.5,1.29A20.11,20.11,0,0,1,100.61,65.44Zm15.45-3.8c-.31,0-3.27.65-7.76,1.74s-7.41,1.88-7.7,2c.32,0,3.28-.64,7.77-1.74S115.78,61.79,116.06,61.64Z" style="fill:#FF725E"></path><path d="M98.05,43.53c.07,0-1.58,2.69-3.7,5.9s-3.9,5.76-4,5.71,1.57-2.69,3.69-5.9S98,43.48,98.05,43.53Z" style="fill:#FF725E"></path><path d="M90.38,55.16h0c0-.15,1.88-3.16,3.7-5.91,1-1.55,2-3,2.75-4.07C98,43.5,98,43.5,98.06,43.52h0s.07,0-1,1.79c-.7,1.11-1.65,2.58-2.67,4.13s-2,3-2.76,4.07A9.38,9.38,0,0,1,90.38,55.16ZM98,43.56c-.21.18-1.73,2.33-4,5.69s-3.61,5.6-3.69,5.86c.21-.17,1.73-2.33,4-5.69S98,43.82,98,43.56Z" style="fill:#FF725E"></path><path d="M80.13,39.75a16.16,16.16,0,0,1,0,2.2c0,1.35,0,3.22,0,5.28s0,3.93.06,5.28a15.56,15.56,0,0,1,0,2.2,12.16,12.16,0,0,1-.22-2.19c-.08-1.35-.15-3.22-.15-5.29s.06-3.94.14-5.29A14.11,14.11,0,0,1,80.13,39.75Z" style="fill:#FF725E"></path><path d="M80.15,54.72s-.05,0-.11-.6c0-.4-.09-1-.13-1.6,0-.91-.15-2.81-.15-5.29s.09-4.38.14-5.29c0-.65.08-1.2.12-1.61.06-.57.09-.59.11-.59h0c.05,0,.07.2,0,2.21,0,1.27,0,3.2,0,5.28s0,3.86.05,5.2v.08c0,2,0,2.21,0,2.21Zm0-14.93a19.52,19.52,0,0,0-.19,2.15c-.06.91-.15,2.81-.15,5.29s.1,4.38.16,5.29a16,16,0,0,0,.2,2.15c0-.18,0-1.36,0-2.16v-.08c0-1.34-.05-3.18-.06-5.2s0-4,0-5.29C80.15,41.15,80.17,40,80.13,39.79Z" style="fill:#FF725E"></path><path d="M66.57,56.65a68.5,68.5,0,0,1-3.76-5.83c-2-3.27-3.55-6-3.47-6s1.76,2.56,3.76,5.83S66.65,56.6,66.57,56.65Z" style="fill:#FF725E"></path><path d="M66.57,56.67s-.18-.14-1.18-1.68c-.71-1.1-1.63-2.58-2.6-4.16-1.71-2.8-3.51-5.86-3.47-6s0,0,0,0,.07,0,1.18,1.68c.71,1.1,1.63,2.58,2.6,4.16s1.86,3.07,2.51,4.2c1,1.78,1,1.81,1,1.82h0ZM59.35,44.84c.07.26,1.38,2.55,3.47,6s3.53,5.63,3.73,5.81c-.07-.26-1.38-2.54-3.47-6S59.55,45,59.35,44.84Z" style="fill:#FF725E"></path><path d="M58.46,63.54a9.15,9.15,0,0,1-1.7-.27c-1-.22-2.46-.57-4-1s-2.94-.94-3.93-1.32a8.44,8.44,0,0,1-1.58-.69,8.92,8.92,0,0,1,1.65.47c1,.32,2.4.76,4,1.22s3,.84,4,1.11A9,9,0,0,1,58.46,63.54Z" style="fill:#FF725E"></path><path d="M58.41,63.56a2.68,2.68,0,0,1-.41-.05c-.32,0-.75-.12-1.24-.23-.7-.15-2.16-.47-4-1s-3.26-1.07-3.93-1.32c-.47-.18-.87-.35-1.17-.48s-.42-.22-.41-.24.24,0,1.67.46c.81.26,2.31.74,4,1.22,1.48.44,2.83.81,4,1.12,1.45.39,1.67.47,1.66.52h0S58.47,63.56,58.41,63.56ZM47.27,60.24a13.21,13.21,0,0,0,1.55.67c.67.25,2.07.77,3.93,1.32s3.32.87,4,1a12.49,12.49,0,0,0,1.64.28h0a16.14,16.14,0,0,0-1.61-.48c-1.15-.31-2.49-.68-4-1.12-1.64-.48-3.14-1-4-1.22A16.15,16.15,0,0,0,47.27,60.24Z" style="fill:#FF725E"></path><path d="M54.92,75.81a39.32,39.32,0,0,1-5.1.66,39.69,39.69,0,0,1-5.13.32,40,40,0,0,1,5.1-.66A39.77,39.77,0,0,1,54.92,75.81Z" style="fill:#FF725E"></path><path d="M45,76.84a.73.73,0,0,1-.3,0v0a45.93,45.93,0,0,1,5.11-.65,40.69,40.69,0,0,1,5.14-.33s0,0,0,0h0a41.77,41.77,0,0,1-5.1.66C47.86,76.67,45.76,76.84,45,76.84Zm-.27,0a47,47,0,0,0,5.1-.34,45,45,0,0,0,5.08-.64,47.21,47.21,0,0,0-5.11.34A45.06,45.06,0,0,0,44.72,76.79Z" style="fill:#FF725E"></path></g><g id="freepik--Character--inject-10"><path d="M360,152.56a6.8,6.8,0,0,1,1.6-6.42,23.6,23.6,0,0,1,6.55-4.47c1.48-.8,4.44-3.7,5.05-3.1a2.11,2.11,0,0,1,.22,2.77c-.71,1.23-5.18,3.33-4.42,4.76.31.58,1.76.57,1.76.57a76.7,76.7,0,0,0,7.88-.45c2.31-.38,4.44-.1,4.38.71s-.47,1.29-2.38,1.6-5.05.43-5.18.89.54.68,1.65.52,6.42-.58,6.83,0a1.21,1.21,0,0,1-.51,1.78l-1.21.53s.8.95.24,1.56-1.94.51-1.94.51l-7,.35s-.36.45-.14.73,5.69-.56,5.78,0,.59.84-1,1.37a22.25,22.25,0,0,1-7.26.57,72.17,72.17,0,0,0-7.76-.09Z" style="fill:#ffbf9d"></path><path d="M370,144.08c.06,0-.29.44-.72,1.12a3,3,0,0,0-.46,1.27c-.07.52,0,1.11-.05,1.76a4.25,4.25,0,0,1-1.46,3c-.66.56-1.19.68-1.21.63s.44-.29,1-.86a4.44,4.44,0,0,0,1.22-2.75,17.3,17.3,0,0,1,.09-1.79,3.06,3.06,0,0,1,.6-1.4A3.15,3.15,0,0,1,370,144.08Z" style="fill:#ff9a6c"></path><path d="M371.89,152.08a29.16,29.16,0,0,1,5.23-.2,31.86,31.86,0,0,1,5.22.25,30.32,30.32,0,0,1-5.23.2A31.86,31.86,0,0,1,371.89,152.08Z" style="fill:#ff9a6c"></path><path d="M363.3,146.8l-34.62,5s-21.75-20.14-27.81-22.38a6.14,6.14,0,0,0-1.53-.44l7.55,20.82s14.32,15.86,22,16.42,35.76-9.16,35.76-9.16Z" style="fill:#ffbf9d"></path><path d="M276.42,123.83,279,91.63c.39-8,5.39-14.5,13.41-13.89l.74.1a14.4,14.4,0,0,1,12.43,15c-.38,7-.89,14.64-1.44,18.33-1.13,7.63-8.94,7.79-8.94,7.79s-.48,4.66-.69,6.92l1.31,5.43-6.17-2.13Z" style="fill:#ffbf9d"></path><path d="M295.24,119a18.61,18.61,0,0,1-9.55-4.3s1.61,6.08,9.34,6.42Z" style="fill:#ff9a6c"></path><path d="M302.07,99.2a1.11,1.11,0,0,1-1.21,1,1.06,1.06,0,0,1-1-1.14,1.11,1.11,0,0,1,1.2-1A1.06,1.06,0,0,1,302.07,99.2Z" style="fill:#263238"></path><path d="M303.53,96c-.15.13-.9-.6-2.07-.75s-2.12.31-2.23.15.12-.31.53-.53a3,3,0,0,1,1.81-.3,2.87,2.87,0,0,1,1.63.78C303.52,95.69,303.61,96,303.53,96Z" style="fill:#263238"></path><path d="M291.86,97.78a1.1,1.1,0,0,1-1.2,1,1.06,1.06,0,0,1-1-1.14,1.11,1.11,0,0,1,1.21-1A1.06,1.06,0,0,1,291.86,97.78Z" style="fill:#263238"></path><path d="M292,94.73c-.16.13-.9-.6-2.08-.75s-2.11.31-2.22.15.11-.31.53-.53a3,3,0,0,1,1.8-.3,2.93,2.93,0,0,1,1.63.78C292,94.41,292.05,94.68,292,94.73Z" style="fill:#263238"></path><path d="M295,104.33a8.44,8.44,0,0,1,1.95-.08c.31,0,.6,0,.68-.21a1.54,1.54,0,0,0-.08-.92c-.19-.76-.38-1.56-.58-2.4a39.32,39.32,0,0,1-1.18-6.25,39.61,39.61,0,0,1,1.68,6.14c.19.84.37,1.64.54,2.41a1.71,1.71,0,0,1,0,1.2.74.74,0,0,1-.55.37,1.51,1.51,0,0,1-.52,0A7,7,0,0,1,295,104.33Z" style="fill:#263238"></path><path d="M292.85,91.11c-.2.28-1.29-.19-2.68-.41s-2.57-.16-2.67-.49c0-.15.23-.39.75-.57a4.68,4.68,0,0,1,4.08.69C292.77,90.66,293,91,292.85,91.11Z" style="fill:#263238"></path><path d="M304.05,92.58c-.27.23-1.2-.16-2.35-.31s-2.15-.08-2.34-.39c-.08-.14.1-.39.56-.59a3.62,3.62,0,0,1,2-.21,3.72,3.72,0,0,1,1.81.76C304.08,92.17,304.18,92.46,304.05,92.58Z" style="fill:#263238"></path><path d="M278.9,97.38c-.13-.08-5-2.27-5.59,3s4.84,4.71,4.87,4.56S278.9,97.38,278.9,97.38Z" style="fill:#ffbf9d"></path><path d="M276.78,102.77s-.1,0-.26.11a1,1,0,0,1-.69-.06,2.26,2.26,0,0,1-.83-2.14,2.92,2.92,0,0,1,.39-1.28,1,1,0,0,1,.76-.63.46.46,0,0,1,.51.3c.06.16,0,.26,0,.27s.12-.08.1-.3a.63.63,0,0,0-.17-.35.74.74,0,0,0-.49-.18,1.28,1.28,0,0,0-1,.71,3.19,3.19,0,0,0-.47,1.43,2.38,2.38,0,0,0,1.1,2.41,1,1,0,0,0,.85,0C276.76,102.89,276.8,102.78,276.78,102.77Z" style="fill:#ff9a6c"></path><path d="M291.19,104.72c.19,0,.08,1.21,1,2.16s2.25.93,2.25,1.1-.31.21-.86.18a3,3,0,0,1-1.88-.85,2.68,2.68,0,0,1-.79-1.81C291,105,291.11,104.7,291.19,104.72Z" style="fill:#263238"></path><path d="M316.87,87a1.24,1.24,0,0,0-.51-.79,3.81,3.81,0,0,0-1.93-.53,11,11,0,0,1-4.67-1.71,5.46,5.46,0,0,0,1.51-.84,3.31,3.31,0,0,0,1.29-3.18.74.74,0,0,0-.35-.54c-.33-.14-.67.16-.93.4a2.86,2.86,0,0,1-2.79.85,4.67,4.67,0,0,1-1.94-.8.56.56,0,0,1-.05-.08l-.72-.89h0a17.67,17.67,0,0,0-5-4.59,17.94,17.94,0,0,0-9.44-1.75,7.25,7.25,0,0,0-6,5,5.55,5.55,0,0,0-5.51-1.11l-.05,0c-2.11.52-3.49,2.54-4.31,4.55l-.12.33a8.17,8.17,0,0,1-3,2.39c-.21.09-.45.21-.5.43a.69.69,0,0,0,.3.58,4.09,4.09,0,0,0,1.57.86,9.41,9.41,0,0,1-.83,1.35c-.27.37-.59.8-.43,1.23a.85.85,0,0,0,.86.48,2.56,2.56,0,0,0,1-.32c-.29.51-.57,1-.85,1.55a4.77,4.77,0,0,0,2.22.09c.23,2,.18,5.61.54,7a8.23,8.23,0,0,1,2.42.36c.88.4.36,2,1.59,1.64.63-.17,1.8-2.35,2.06-2.94a30,30,0,0,0,2.63-12.56,9.85,9.85,0,0,1,3.21-1.83l-.1.07c2.22-.52,4.73-1,6.66.23,1.49.94,2.25,2.68,3.29,4.11a11,11,0,0,0,7.7,4.8c.05,2.35-.26,6.15-.37,8.32l2.3-4.13v0a6.44,6.44,0,0,0,.47-.73l.05-.07h0c.24-.39.46-.78.74-1.17l0,0A1.35,1.35,0,0,0,311,91.42a2.92,2.92,0,0,0-.58-.73,2.15,2.15,0,0,0,2,.74,1.68,1.68,0,0,0,1.36-1.53,1.42,1.42,0,0,0-.73-1.23,4.88,4.88,0,0,0,2.8-.32C316.4,88.1,317,87.65,316.87,87Z" style="fill:#263238"></path><path d="M287.63,78.66a8.05,8.05,0,0,0-.85.63,5.61,5.61,0,0,0-1.44,2.42,9.75,9.75,0,0,0-.41,1.94c-.07.7-.1,1.47-.13,2.27a20.62,20.62,0,0,1-.2,2.53,8.06,8.06,0,0,1-.32,1.31,2.71,2.71,0,0,1-.67,1.23,1.17,1.17,0,0,1-1.13.25,1.77,1.77,0,0,1-.91-.65,4,4,0,0,1-.54-2l.16,0a6.24,6.24,0,0,1-1.1,1.51,2.31,2.31,0,0,1-1.58.66,1.48,1.48,0,0,1-.78-.22,1.29,1.29,0,0,1-.48-.59,1.22,1.22,0,0,1-.09-.7.94.94,0,0,1,.3-.57l.08.08a5.12,5.12,0,0,1-1.78,1.07,4.82,4.82,0,0,1-.53.14L275,90s.06,0,.18-.06a3.76,3.76,0,0,0,.52-.17,5.16,5.16,0,0,0,1.72-1.09l.08.08a1,1,0,0,0-.17,1.14,1.14,1.14,0,0,0,.43.52,1.3,1.3,0,0,0,.71.19A2.18,2.18,0,0,0,280,90,6.58,6.58,0,0,0,281,88.51l.14-.24,0,.27a3.88,3.88,0,0,0,.51,1.94,1.57,1.57,0,0,0,.82.59,1,1,0,0,0,1-.21,2.72,2.72,0,0,0,.62-1.16,8.23,8.23,0,0,0,.31-1.28,20.13,20.13,0,0,0,.22-2.51c0-.8.06-1.56.15-2.28a9.27,9.27,0,0,1,.43-2,5.4,5.4,0,0,1,1.52-2.43A3.13,3.13,0,0,1,287.63,78.66Z" style="fill:#455a64"></path><path d="M310.61,88.64l-.07,0-.21.12L310,89a4.32,4.32,0,0,1-.5.2,6.84,6.84,0,0,1-3.35.24,8.78,8.78,0,0,1-4.45-2.2,15,15,0,0,1-3.5-5c-.46-1-.82-2-1.23-2.92a9.88,9.88,0,0,0-1.47-2.52,5.25,5.25,0,0,0-2.07-1.58,3.72,3.72,0,0,0-1.15-.25,3.86,3.86,0,0,0-1.09.09,4.51,4.51,0,0,0-1.71.79,4.44,4.44,0,0,0-1,1A5.24,5.24,0,0,0,288,78a.45.45,0,0,1,0-.08c0-.07,0-.14.06-.23a3.64,3.64,0,0,1,.39-.84,4.44,4.44,0,0,1,2.72-1.92,4.1,4.1,0,0,1,1.12-.1,3.63,3.63,0,0,1,1.2.25,5.42,5.42,0,0,1,2.15,1.61,10.26,10.26,0,0,1,1.5,2.56c.42.94.77,1.94,1.23,2.92a15.2,15.2,0,0,0,3.45,5,8.74,8.74,0,0,0,4.36,2.2,7.06,7.06,0,0,0,3.31-.19A10.71,10.71,0,0,0,310.61,88.64Z" style="fill:#455a64"></path><path d="M311.66,85.34a1.06,1.06,0,0,1-.29.16,6.58,6.58,0,0,1-.86.33,8,8,0,0,1-1.34.29,9.14,9.14,0,0,1-1.67,0,8,8,0,0,1-1.65-.29,7.41,7.41,0,0,1-1.28-.47,6.42,6.42,0,0,1-.81-.45,1.92,1.92,0,0,1-.27-.21s.42.24,1.13.54a9.35,9.35,0,0,0,1.27.43,8.69,8.69,0,0,0,1.62.27,9.81,9.81,0,0,0,1.64,0,9.55,9.55,0,0,0,1.32-.24C311.21,85.51,311.65,85.31,311.66,85.34Z" style="fill:#455a64"></path><path d="M394.76,188.8l1.88,15.55s16.43,3.31,17.05,6.15l-30,4.72-3.92-24.1Z" style="fill:#263238"></path><path d="M387.15,204.51a1.24,1.24,0,0,0-.62,1.53,1.19,1.19,0,0,0,1.51.63,1.3,1.3,0,0,0,.65-1.62,1.22,1.22,0,0,0-1.64-.49" style="fill:#e0e0e0"></path><path d="M383.69,215.22l-.3-2.44,28.88-3.62s1.43.37,1.42,1.34Z" style="fill:#455a64"></path><path d="M397.1,204.12c0,.15-.71.33-1.35.91s-.94,1.26-1.08,1.23-.06-.92.74-1.62S397.11,204,397.1,204.12Z" style="fill:#fff"></path><path d="M400.45,204.92c.06.14-.54.49-.94,1.19s-.44,1.37-.59,1.39-.37-.8.15-1.65S400.43,204.79,400.45,204.92Z" style="fill:#fff"></path><path d="M402.83,208.41c-.13.05-.45-.65-.2-1.51s.89-1.29,1-1.18-.28.61-.47,1.32S403,208.37,402.83,208.41Z" style="fill:#fff"></path><path d="M396.28,200.62c0,.15-.75,0-1.57.24s-1.42.55-1.52.43.45-.73,1.41-.94S396.33,200.5,396.28,200.62Z" style="fill:#fff"></path><path d="M324.46,182.52c.33-.83,31.4-38.14,39.66-41.92,10.2-4.67,16.65-.9,20,4.66s13.38,53.48,13.38,53.48l-18.14,3.17s-6.12-19.86-8-25.06-.92-8.38-.92-8.38a48.64,48.64,0,0,1-4,8.12c-2.09,3-12.57,21.86-12.57,21.86Z" style="fill:#263238"></path><path d="M302.94,198.22s6.22,14.84,10.94,16.19,64.85,0,64.85,0L362.62,192.3l-19.79-5.13-17.26-10.63Z" style="fill:#263238"></path><path d="M398.32,210.74c.67,17.07,3.15,60.29,3.15,60.29l-19.35,2.25s-4.05-34.25-4.8-39.73-.51-16-.51-16L332,213.78s19.13-23.42,21.09-23.25c2.54.21,25.23,4.6,37.46,9.7C395.21,202.17,398.12,205.71,398.32,210.74Z" style="fill:#263238"></path><path d="M399.28,258.06l.75,18s18.56,5.29,19,8.6l-34.87,2.71-2.32-28Z" style="fill:#263238"></path><path d="M389.13,275.4a1.43,1.43,0,0,0-.86,1.7A1.38,1.38,0,0,0,390,278a1.52,1.52,0,0,0,.9-1.81,1.43,1.43,0,0,0-1.85-.71" style="fill:#e0e0e0"></path><path d="M384.18,287.38l-.12-2.83L417.54,283s1.6.55,1.51,1.66Z" style="fill:#455a64"></path><path d="M400.58,275.85c0,.17-.84.31-1.63.93s-1.19,1.36-1.35,1.3,0-1.05,1-1.78S400.61,275.69,400.58,275.85Z" style="fill:#fff"></path><path d="M404.36,277.08c.05.16-.67.51-1.19,1.27s-.63,1.54-.8,1.55-.35-.95.31-1.89S404.34,276.92,404.36,277.08Z" style="fill:#fff"></path><path d="M406.77,281.29c-.15,0-.45-.78-.09-1.75s1.14-1.4,1.22-1.26-.37.67-.66,1.47S406.94,281.26,406.77,281.29Z" style="fill:#fff"></path><path d="M400,271.76c-.06.17-.86,0-1.81.13s-1.69.5-1.79.36.58-.8,1.71-.95S400,271.62,400,271.76Z" style="fill:#fff"></path><path d="M398.54,210.83a20.05,20.05,0,0,0-.55-2.43,12.88,12.88,0,0,0-3.72-5.57,11.29,11.29,0,0,0-1.79-1.34,17.82,17.82,0,0,0-2.19-1c-1.56-.65-3.27-1.25-5.08-1.86s-3.72-1.22-5.71-1.83c-1-.3-2-.62-3-.9l-3.17-.79-21.91-5.57-6.63-1.74-1.79-.5a4,4,0,0,1-.62-.21,2.93,2.93,0,0,1,.64.1l1.82.41,6.67,1.58,22,5.42,3.17.8c1,.29,2,.61,3,.91,2,.62,3.9,1.24,5.71,1.86s3.53,1.25,5.1,1.92a18.49,18.49,0,0,1,2.23,1.1,11.6,11.6,0,0,1,1.83,1.4,12.76,12.76,0,0,1,3.67,5.79A7.51,7.51,0,0,1,398.54,210.83Z" style="fill:#455a64"></path><polygon points="297.67 125.91 319.23 141.74 316.46 153.29 297.67 125.91" style="fill:#455a64"></polygon><path d="M274.62,164.34c1,.91,13.1,19.78,17.38,25.42,3.31,4.36,7.85,9.78,11.49,14.48a5.59,5.59,0,0,0,6,1.87c6.2-1.44,27.57-21.12,27.57-32.16a4.12,4.12,0,0,0-4-2.43c-2,0-5.45-5.8-5.45-5.8s-12.86-16.8-14.31-19.54S296,123.25,296,123.25,281.34,118,280,118c-.81,0-6.33,1.23-6.33,1.23l-4.85,31.24Z" style="fill:#455a64"></path><path d="M331.57,177.68a6.59,6.59,0,0,1-.5,1.2c-.35.76-.91,1.84-1.66,3.14a55.59,55.59,0,0,1-15.63,17.25c-1.22.87-2.24,1.54-3,2a6.29,6.29,0,0,1-1.15.61,5.88,5.88,0,0,1,1-.78c.69-.47,1.67-1.18,2.85-2.09a63.13,63.13,0,0,0,15.54-17.14c.78-1.27,1.39-2.31,1.79-3A6.41,6.41,0,0,1,331.57,177.68Z" style="fill:#263238"></path><path d="M330.26,173.31a49.73,49.73,0,0,1-3.33,6.25,49.86,49.86,0,0,1-3.78,6,45.8,45.8,0,0,1,3.33-6.26A47.36,47.36,0,0,1,330.26,173.31Z" style="fill:#263238"></path><path d="M298.41,126.43a5.67,5.67,0,0,1,.89,1c.55.66,1.32,1.63,2.26,2.84,1.87,2.41,4.37,5.81,7.1,9.59l7,9.68,2.12,2.93a6.52,6.52,0,0,1,.73,1.11,6.22,6.22,0,0,1-.89-1c-.55-.66-1.32-1.63-2.25-2.84-1.87-2.41-4.38-5.81-7.1-9.59l-7-9.68-2.12-2.93A7.44,7.44,0,0,1,298.41,126.43Z" style="fill:#263238"></path><path d="M254.57,213.23a6.83,6.83,0,0,1,2.79-1.8c1.58-.45,10.37-3.59,10.37-3.59l-.2-3.53L278.1,203l-.5,6.72c.36.83-.3,3.31-.75,3.38s-5.58.15-5.58.15Z" style="fill:#ffbf9d"></path><path d="M275.14,209.47c.06,0,0,.36-.44.72a7.6,7.6,0,0,1-1.68,1,2.49,2.49,0,0,0-1.25,1.18c-.18.4-.11.7-.19.72s-.28-.28-.16-.84a2.43,2.43,0,0,1,1.36-1.52c.7-.35,1.31-.57,1.7-.82S275.08,209.43,275.14,209.47Z" style="fill:#ff9a6c"></path><path d="M267.19,210.6a9.13,9.13,0,0,1-3.47,1.43c-1,.29-1.85.61-2.47.82a.74.74,0,0,0-.54.7s-.15-.06-.15-.3a.9.9,0,0,1,.53-.73,14.45,14.45,0,0,1,2.48-1A28.31,28.31,0,0,1,267.19,210.6Z" style="fill:#ff9a6c"></path><path d="M267.63,205.45c-.09-.94-4.22-32.79-4.21-33.6s2.48-32.31,2.48-32.31L283,141l-2.92,26.75L278,205.45Z" style="fill:#ffbf9d"></path><path d="M284.6,161.18s2.63-20.79,3.44-27.12c.74-5.85-1.57-14.1-6.31-15.55a9.94,9.94,0,0,0-3-.55c-5.54.25-11.41,4.33-12.73,9.72a105.26,105.26,0,0,0-1.91,13.55L262.75,157Z" style="fill:#455a64"></path><path d="M284.6,161.18a1.53,1.53,0,0,1-.37,0l-1.13-.2-4.36-.78-16-2.94-.18,0V157c.42-4.9.89-10.51,1.4-16.61.25-3.06.66-6.22,1.2-9.47a23.36,23.36,0,0,1,1.18-4.89,12.46,12.46,0,0,1,3-4.23,15.69,15.69,0,0,1,5.14-3.19,14.75,14.75,0,0,1,2.88-.76c.49-.09,1-.1,1.48-.15a6.58,6.58,0,0,1,1.48.17,8.74,8.74,0,0,1,2.73,1,7.34,7.34,0,0,1,2.11,1.92,15.24,15.24,0,0,1,2.38,4.9,22.16,22.16,0,0,1,.53,10l-1.14,8.64-1.67,12.44c-.2,1.43-.35,2.55-.46,3.36-.06.35-.1.63-.13.86s-.05.28-.06.27l0-.32.09-.9c.09-.81.23-2,.39-3.41.36-3,.86-7.23,1.48-12.46.32-2.62.67-5.48,1-8.55a21.86,21.86,0,0,0-.56-9.75,14.7,14.7,0,0,0-2.31-4.72,6.94,6.94,0,0,0-2-1.8,8.31,8.31,0,0,0-2.58-.9,5.74,5.74,0,0,0-1.36-.16c-.46.05-.94.06-1.41.15a14.62,14.62,0,0,0-2.78.73,15.14,15.14,0,0,0-5,3.09,12,12,0,0,0-2.89,4,22.7,22.7,0,0,0-1.16,4.78c-.53,3.23-1,6.38-1.21,9.42-.55,6.1-1,11.7-1.48,16.61l-.16-.22L278.65,160l4.39.89,1.16.25Z" style="fill:#263238"></path></g></svg>
